<svg id="Capa_1" data-name="Capa 1" xmlns="http://www.w3.org/2000/svg" xmlns:xlink="http://www.w3.org/1999/xlink" viewBox="0 0 640 640"><defs><style>.cls-1,.cls-4{fill:none;}.cls-2{fill:#fff;}.cls-3{clip-path:url(#clip-path);}.cls-4{stroke:#000;stroke-width:0.26px;}.cls-5{fill:#f4f1f1;}.cls-6{fill:#fffdfd;}.cls-7{fill:#ff1616;}</style><clipPath id="clip-path"><rect class="cls-1" width="640" height="640"/></clipPath></defs><g id="Capa_2" data-name="Capa 2"><g id="Capa_1-2" data-name="Capa 1-2"><path class="cls-2" d="M282.83,514.21c-.54,9.8.27,19.34.88,28.91.33,5.23.17,10.52.56,15.75.58,7.79.27,15.59.43,23.38,0,.11,0,.22,0,.33,0,.85.61,1.83-.39,2.45s-1.51-.55-2.18-1.1c-2.6-2.16-4.81-4.86-7.26-7.22a36.57,36.57,0,0,1-3.09-3.48,122,122,0,0,1-8.09-10.9c-2.2-3.46-4.29-7-6.24-10.66a65.86,65.86,0,0,1-6.36-18,66.3,66.3,0,0,1,2.43-32.13,69.25,69.25,0,0,1,15.12-24.39,66.74,66.74,0,0,1,12.05-9.45,3.8,3.8,0,0,1,4.17-.06c3.6,2.21,7.18,4.46,10.64,7a93.47,93.47,0,0,1,10.81,9.29,42,42,0,0,1,3.18,3.6,95.87,95.87,0,0,1,6,8.64,4.51,4.51,0,0,1,.59,1.3,17.07,17.07,0,0,0,3.24,6.85,7.75,7.75,0,0,1,1.28,3.75,4,4,0,0,1-2.34,4.45,58.54,58.54,0,0,0-12.77,8.41,21.8,21.8,0,0,0-3.24,3.54c-1.68,2.37-3.42,4.68-4.92,7.25a55.87,55.87,0,0,0-5.05,11c-.13.41-.28.69-.68.65-.59-.06-.74-.58-.8-1.15-.29-2.78-.76-5.57-.81-8.36-.19-10.8-1.21-21.52-1.78-32.28-.17-3.24-.68-6.44-1-9.66-.17-1.51-1.05-1.71-2.14-1.68a1.9,1.9,0,0,0-2.11,2.15c0,2.74-.1,5.48-.11,8.21C282.82,505.2,282.83,509.8,282.83,514.21Z"/><path class="cls-2" d="M338.5,587c-5.51,0-10.81-1.62-16.17-2.92-7.14-1.74-13.89-4.83-20.67-7.88a1.12,1.12,0,0,1-.79-1.15c0-.6.36-.76.8-1q5.9-2.57,11.78-5.2a135.15,135.15,0,0,0,17-9.08c2.28-1.43,4.44-3.1,6.64-4.69,1.85-1.33,3.67-2.71,5.5-4.06a3.59,3.59,0,0,0,1.1-3.88c-.45-1.58-1.58-2.46-3-2.2a117.28,117.28,0,0,0-20.92,5.68,175.33,175.33,0,0,0-22.67,10.78,14.38,14.38,0,0,1-1.54.72,2,2,0,0,1-2.66-1.12,2.24,2.24,0,0,1,0-1.61c1.46-4.45,2-9.28,4.07-13.49a5,5,0,0,0,.3-.92,45,45,0,0,1,5.06-11.13,36.49,36.49,0,0,1,12.15-13c3-1.81,6.21-2.7,9.42-3.75,8.39-2.72,16.2-.19,23.94,3.26A69,69,0,0,1,360,528.12c2.23,1.63,4.51,3.16,6.83,4.62a6.6,6.6,0,0,1,3,4.81c.69,4-.35,7.9-1.2,11.68-1.22,5.38-2.66,10.71-4.35,15.91a38.94,38.94,0,0,1-9,15.48A21.42,21.42,0,0,1,340.18,587C339.62,587.06,339.06,587,338.5,587Z"/></g></g><path d="M638.91,320.17q0,7.83-.38,15.67t-1.15,15.64c-.52,5.21-1.15,10.39-1.92,15.57s-1.66,10.32-2.68,15.44-2.16,10.23-3.43,15.3-2.66,10.12-4.18,15.12-3.15,10-4.91,14.88-3.63,9.8-5.64,14.64-4.11,9.6-6.34,14.33-4.58,9.4-7,14-5,9.16-7.72,13.64-5.47,8.9-8.37,13.25-5.91,8.62-9,12.82-6.33,8.32-9.63,12.37-6.73,8-10.23,11.87-7.11,7.66-10.8,11.35-7.47,7.3-11.34,10.82-7.82,6.92-11.86,10.24-8.15,6.53-12.34,9.64-8.46,6.13-12.8,9-8.76,5.7-13.24,8.38-9,5.27-13.62,7.74-9.27,4.81-14,7-9.48,4.36-14.31,6.36-9.7,3.88-14.61,5.64-9.88,3.4-14.87,4.92-10,2.91-15.09,4.18-10.16,2.42-15.28,3.44-10.26,1.91-15.43,2.68-10.34,1.41-15.54,1.92-10.4.9-15.61,1.15-10.44.39-15.66.39-10.44-.13-15.65-.39-10.42-.64-15.62-1.15-10.37-1.15-15.54-1.92-10.31-1.66-15.43-2.68-10.22-2.16-15.28-3.44-10.09-2.66-15.09-4.18-10-3.16-14.87-4.92-9.78-3.64-14.6-5.64-9.61-4.12-14.32-6.36-9.38-4.58-14-7-9.15-5-13.62-7.74-8.89-5.48-13.23-8.38-8.61-5.92-12.8-9-8.31-6.32-12.35-9.64-8-6.73-11.86-10.24S98,549.77,94.29,546.07,87,538.59,83.5,534.72s-6.92-7.83-10.23-11.87-6.53-8.17-9.64-12.37-6.11-8.47-9-12.82-5.7-8.76-8.38-13.25-5.26-9-7.72-13.64-4.81-9.28-7-14-4.35-9.5-6.35-14.33-3.87-9.71-5.63-14.64-3.39-9.88-4.92-14.88-2.9-10-4.17-15.12S8,387.62,7,382.49,5.07,372.21,4.3,367.05s-1.4-10.36-1.91-15.57-.9-10.41-1.15-15.64S.85,325.39.85,320.17s.13-10.46.39-15.68.63-10.44,1.15-15.64,1.15-10.39,1.91-15.56S6,263,7,257.84s2.16-10.23,3.43-15.3,2.66-10.11,4.17-15.11,3.16-10,4.92-14.9,3.64-9.8,5.63-14.62,4.12-9.61,6.35-14.34,4.58-9.4,7-14,5-9.16,7.72-13.65,5.48-8.9,8.38-13.25,5.9-8.62,9-12.82,6.32-8.32,9.64-12.36,6.72-8,10.23-11.88S90.6,98,94.29,94.26s7.47-7.3,11.34-10.81,7.83-6.93,11.86-10.24,8.15-6.54,12.35-9.66,8.46-6.12,12.8-9,8.75-5.7,13.23-8.39,9-5.27,13.62-7.73,9.27-4.82,14-7S193,27,197.8,25s9.68-3.89,14.6-5.65,9.87-3.4,14.87-4.92,10-2.91,15.09-4.18,10.16-2.41,15.28-3.43,10.26-1.92,15.43-2.69,10.34-1.41,15.54-1.92,10.4-.89,15.62-1.15S314.66.69,319.88.69s10.44.12,15.66.38,10.42.64,15.61,1.15,10.38,1.15,15.54,1.92S377,5.81,382.12,6.83,392.33,9,397.4,10.26s10.09,2.67,15.09,4.18,9.95,3.16,14.87,4.92S437.15,23,442,25s9.59,4.11,14.31,6.35,9.39,4.59,14,7,9.15,5,13.62,7.73,8.9,5.48,13.24,8.39,8.6,5.91,12.8,9,8.31,6.34,12.34,9.66,8,6.72,11.86,10.24,7.65,7.11,11.34,10.81,7.29,7.48,10.8,11.35,6.91,7.84,10.23,11.88,6.52,8.16,9.63,12.36,6.11,8.48,9,12.82,5.69,8.76,8.37,13.25,5.26,9,7.72,13.65,4.81,9.28,7,14,4.35,9.5,6.34,14.34,3.89,9.7,5.64,14.62,3.4,9.89,4.91,14.9,2.91,10,4.18,15.11,2.41,10.17,3.43,15.3,1.91,10.28,2.68,15.45,1.4,10.36,1.92,15.56.89,10.42,1.15,15.64S638.91,314.94,638.91,320.17Z"/><g class="cls-3"><path class="cls-4" d="M638.91,320.17q0,7.83-.38,15.67t-1.15,15.64c-.52,5.21-1.15,10.39-1.92,15.57s-1.66,10.32-2.68,15.44-2.16,10.23-3.43,15.3-2.66,10.12-4.18,15.12-3.15,10-4.91,14.88-3.63,9.8-5.64,14.64-4.11,9.6-6.34,14.33-4.58,9.4-7,14-5,9.16-7.72,13.64-5.47,8.9-8.37,13.25-5.91,8.62-9,12.82-6.33,8.32-9.63,12.37-6.73,8-10.23,11.87-7.11,7.66-10.8,11.35-7.47,7.3-11.34,10.82-7.82,6.92-11.86,10.24-8.15,6.53-12.34,9.64-8.46,6.13-12.8,9-8.76,5.7-13.24,8.38-9,5.27-13.62,7.74-9.27,4.81-14,7-9.48,4.36-14.31,6.36-9.7,3.88-14.61,5.64-9.88,3.4-14.87,4.92-10,2.91-15.09,4.18-10.16,2.42-15.28,3.44-10.26,1.91-15.43,2.68-10.34,1.41-15.54,1.92-10.4.9-15.61,1.15-10.44.39-15.66.39-10.44-.13-15.65-.39-10.42-.64-15.62-1.15-10.37-1.15-15.54-1.92-10.31-1.66-15.43-2.68-10.22-2.16-15.28-3.44-10.09-2.66-15.09-4.18-10-3.16-14.87-4.92-9.78-3.64-14.6-5.64-9.61-4.12-14.32-6.36-9.38-4.58-14-7-9.15-5-13.62-7.74-8.89-5.48-13.23-8.38-8.61-5.92-12.8-9-8.31-6.32-12.35-9.64-8-6.73-11.86-10.24S98,549.77,94.29,546.07,87,538.59,83.5,534.72s-6.92-7.83-10.23-11.87-6.53-8.17-9.64-12.37-6.11-8.47-9-12.82-5.7-8.76-8.38-13.25-5.26-9-7.72-13.64-4.81-9.28-7-14-4.35-9.5-6.35-14.33-3.87-9.71-5.63-14.64-3.39-9.88-4.92-14.88-2.9-10-4.17-15.12S8,387.62,7,382.49,5.07,372.21,4.3,367.05s-1.4-10.36-1.91-15.57-.9-10.41-1.15-15.64S.85,325.39.85,320.17s.13-10.46.39-15.68.63-10.44,1.15-15.64,1.15-10.39,1.91-15.56S6,263,7,257.84s2.16-10.23,3.43-15.3,2.66-10.11,4.17-15.11,3.16-10,4.92-14.9,3.64-9.8,5.63-14.62,4.12-9.61,6.35-14.34,4.58-9.4,7-14,5-9.16,7.72-13.65,5.48-8.9,8.38-13.25,5.9-8.62,9-12.82,6.32-8.32,9.64-12.36,6.72-8,10.23-11.88S90.6,98,94.29,94.26s7.47-7.3,11.34-10.81,7.83-6.93,11.86-10.24,8.15-6.54,12.35-9.66,8.46-6.12,12.8-9,8.75-5.7,13.23-8.39,9-5.27,13.62-7.73,9.27-4.82,14-7S193,27,197.8,25s9.68-3.89,14.6-5.65,9.87-3.4,14.87-4.92,10-2.91,15.09-4.18,10.16-2.41,15.28-3.43,10.26-1.92,15.43-2.69,10.34-1.41,15.54-1.92,10.4-.89,15.62-1.15S314.66.69,319.88.69s10.44.12,15.66.38,10.42.64,15.61,1.15,10.38,1.15,15.54,1.92S377,5.81,382.12,6.83,392.33,9,397.4,10.26s10.09,2.67,15.09,4.18,9.95,3.16,14.87,4.92S437.15,23,442,25s9.59,4.11,14.31,6.35,9.39,4.59,14,7,9.15,5,13.62,7.73,8.9,5.48,13.24,8.39,8.6,5.91,12.8,9,8.31,6.34,12.34,9.66,8,6.72,11.86,10.24,7.65,7.11,11.34,10.81,7.29,7.48,10.8,11.35,6.91,7.84,10.23,11.88,6.52,8.16,9.63,12.36,6.11,8.48,9,12.82,5.69,8.76,8.37,13.25,5.26,9,7.72,13.65,4.81,9.28,7,14,4.35,9.5,6.34,14.34,3.89,9.7,5.64,14.62,3.4,9.89,4.91,14.9,2.91,10,4.18,15.11,2.41,10.17,3.43,15.3,1.91,10.28,2.68,15.45,1.4,10.36,1.92,15.56.89,10.42,1.15,15.64S638.91,314.94,638.91,320.17Z"/></g><path d="M616,317.62q0,7.22-.36,14.44t-1.07,14.41q-.71,7.2-1.77,14.34c-.71,4.76-1.55,9.51-2.49,14.24s-2,9.42-3.19,14.1-2.46,9.31-3.87,13.92-2.93,9.18-4.56,13.72-3.38,9-5.23,13.48-3.82,8.85-5.89,13.21-4.25,8.65-6.54,12.91-4.67,8.43-7.16,12.56-5.08,8.2-7.77,12.21-5.49,7.95-8.38,11.81-5.86,7.67-8.94,11.4-6.24,7.36-9.49,10.94-6.6,7.05-10,10.46-6.94,6.73-10.53,10-7.26,6.38-11,9.44-7.56,6-11.46,8.89-7.85,5.64-11.88,8.32-8.13,5.25-12.28,7.73-8.37,4.85-12.65,7.12-8.6,4.44-13,6.5-8.81,4-13.29,5.85-9,3.58-13.56,5.2-9.16,3.13-13.8,4.53-9.31,2.69-14,3.86-9.43,2.22-14.18,3.16-9.53,1.76-14.32,2.47-9.6,1.3-14.43,1.77-9.65.83-14.49,1.06-9.69.36-14.53.36-9.7-.12-14.53-.36-9.68-.58-14.5-1.06-9.63-1.06-14.43-1.77-9.56-1.53-14.32-2.47-9.48-2-14.18-3.16-9.37-2.46-14-3.86-9.24-2.9-13.8-4.53-9.08-3.35-13.56-5.2-8.91-3.79-13.29-5.85-8.71-4.23-13-6.5-8.49-4.64-12.65-7.12-8.25-5.06-12.28-7.73-8-5.45-11.88-8.32-7.72-5.83-11.46-8.89-7.41-6.2-11-9.44-7.1-6.56-10.53-10-6.76-6.9-10-10.46S94,508.09,91,504.37,84.9,496.85,82,493s-5.67-7.8-8.36-11.81-5.29-8.07-7.78-12.21-4.88-8.32-7.16-12.56-4.46-8.56-6.54-12.91-4-8.76-5.89-13.21-3.6-8.94-5.23-13.48-3.15-9.11-4.56-13.72-2.7-9.25-3.87-13.92-2.24-9.38-3.19-14.1-1.78-9.48-2.49-14.24-1.3-9.54-1.77-14.34-.84-9.6-1.07-14.41-.36-9.63-.36-14.44.12-9.63.36-14.45.59-9.61,1.07-14.4,1.06-9.58,1.77-14.34,1.55-9.52,2.49-14.24,2-9.42,3.19-14.1,2.46-9.32,3.87-13.92,2.93-9.19,4.56-13.72,3.38-9,5.23-13.48,3.82-8.86,5.89-13.21,4.25-8.66,6.54-12.91,4.67-8.44,7.16-12.57,5.08-8.2,7.78-12.21,5.48-7.94,8.36-11.81,5.87-7.67,8.95-11.39,6.24-7.37,9.49-10.94,6.6-7.06,10-10.46,6.94-6.73,10.53-10,7.26-6.38,11-9.43,7.56-6,11.46-8.9,7.86-5.64,11.88-8.31,8.13-5.25,12.28-7.73S176,60.27,180.28,58s8.6-4.44,13-6.5,8.81-4,13.29-5.86,9-3.57,13.56-5.2,9.17-3.13,13.8-4.53,9.31-2.68,14-3.85,9.43-2.23,14.18-3.17,9.53-1.76,14.32-2.47,9.6-1.3,14.43-1.76,9.66-.83,14.5-1.07,9.68-.35,14.53-.35,9.69.12,14.53.35,9.67.59,14.49,1.07,9.63,1.06,14.43,1.76,9.56,1.53,14.32,2.47,9.48,2,14.18,3.17,9.37,2.46,14,3.85,9.24,2.91,13.8,4.53,9.08,3.36,13.56,5.2,8.91,3.8,13.29,5.86,8.71,4.22,13,6.5,8.49,4.64,12.65,7.12,8.25,5.05,12.28,7.73,8,5.45,11.88,8.31S504,87,507.74,90.07s7.42,6.2,11,9.43,7.1,6.56,10.53,10,6.76,6.89,10,10.46,6.42,7.22,9.49,10.94,6.06,7.52,8.94,11.39,5.68,7.81,8.38,11.81,5.28,8.08,7.77,12.21,4.88,8.32,7.16,12.57,4.46,8.55,6.54,12.91,4,8.75,5.89,13.21,3.6,8.94,5.23,13.48,3.15,9.1,4.56,13.72,2.7,9.25,3.87,13.92,2.25,9.38,3.19,14.1,1.78,9.47,2.49,14.24,1.3,9.54,1.77,14.34.84,9.59,1.07,14.4S616,312.8,616,317.62Z"/><path class="cls-5" d="M616.28,350.27q-1.39,12.53-3.86,24.89l-4.09-.79q2.43-12.19,3.81-24.55Zm-5.56,32.85Q608,395.23,604.2,407l-4-1.23q3.72-11.65,6.43-23.59ZM601.54,415q-4.12,11.79-9.23,23.2l-3.82-1.66q5-11.25,9.11-22.88Zm-12.72,30.69q-5.42,11.26-11.79,22l-3.6-2.07q6.27-10.62,11.63-21.73ZM572.66,474.9q-6.66,10.58-14.19,20.55L555.12,493q7.43-9.84,14-20.27ZM553.35,502q-7.83,9.8-16.45,18.9l-3-2.8q8.5-9,16.23-18.64Zm-22.3,24.89q-8.91,8.88-18.54,17l-2.71-3.13q9.49-8,18.29-16.75ZM506,549.2q-9.79,7.78-20.23,14.73l-2.33-3.4q10.28-6.84,20-14.52Zm-27.3,19.29q-10.74,6.72-22,12.51l-1.92-3.65q11.1-5.7,21.69-12.32Zm-29.51,16.22q-11.29,5.41-23,9.85l-1.5-3.83q11.55-4.38,22.68-9.71Zm-31,12.77q-12,4.15-24.22,7.27l-1.05-4q12.11-3.09,23.89-7.18Zm-32.31,9.21q-12.33,2.79-24.87,4.52l-.58-4.06q12.36-1.71,24.53-4.46Zm-33.32,5.57q-12.44,1.37-25,1.69l-.11-4.11q12.34-.32,24.61-1.66ZM319.42,614Q307,614,294.66,613l.36-4.09q12.18,1,24.41,1Zm-33.15-1.89q-12.7-1.42-25.22-3.93l.83-4q12.35,2.47,24.86,3.88ZM253,606.49q-12.25-2.81-24.24-6.63L230,596q11.84,3.78,23.91,6.54Zm-32.31-9.33q-11.91-4.17-23.42-9.33l1.73-3.74q11.34,5.08,23.09,9.2Zm-31-12.85q-11.37-5.49-22.24-11.91l2.14-3.52q10.72,6.33,21.93,11.74ZM160.22,568q-10.62-6.69-20.63-14.24l2.54-3.26q9.87,7.44,20.34,14ZM133,548.62q-9.83-7.86-19-16.51l2.89-3q9,8.54,18.69,16.28Zm-25-22.36q-8.88-8.89-16.94-18.5l3.2-2.62q8,9.47,16.71,18.24Zm-22.23-25q-7.75-9.76-14.67-20.15l3.49-2.25q6.83,10.23,14.46,19.87ZM66.59,474.1q-6.65-10.65-12.38-21.82l3.71-1.85q5.65,11,12.22,21.51ZM50.53,444.85Q45.16,433.65,40.77,422l3.91-1.43Q49,432,54.29,443.1ZM37.9,414.11q-4.09-11.81-7.17-23.91l4.05-1q3,11.94,7.07,23.58Zm-9.08-31.88Q26.09,370,24.39,357.66l4.13-.55q1.66,12.21,4.37,24.23Zm-5.45-32.89Q22,337.09,21.74,324.76l4.17-.1q.3,12.15,1.6,24.24Zm-1.71-32.62q0-12.23,1.09-24.41l4.15.35q-1,12-1.07,24.07ZM23.58,284q1.43-12.5,3.93-24.84l4.09.8q-2.48,12.18-3.88,24.51Zm5.66-32.81q2.79-12.1,6.6-23.92l4,1.24q-3.75,11.66-6.51,23.59Zm9.28-31.87q4.17-11.78,9.3-23.16l3.82,1.67q-5.07,11.23-9.18,22.84Zm12.81-30.64q5.47-11.25,11.87-22l3.6,2.08q-6.31,10.6-11.71,21.71ZM67.6,159.54Q74.29,149,81.85,139l3.34,2.46q-7.45,9.81-14,20.22ZM87,132.47q7.86-9.77,16.52-18.84l3,2.81Q98,125.4,90.25,135Zm22.38-24.82q9-8.85,18.6-16.92l2.7,3.13q-9.52,8-18.33,16.69Zm25.1-22.2q9.82-7.76,20.27-14.66l2.33,3.41q-10.31,6.81-20,14.46Zm27.38-19.21q10.75-6.67,22-12.43l1.92,3.65q-11.13,5.67-21.73,12.25Zm29.55-16.12q11.31-5.38,23.05-9.78l1.48,3.83q-11.55,4.35-22.72,9.65Zm31.09-12.67q12-4.11,24.23-7.2l1,4q-12.09,3-23.89,7.1Zm32.31-9.11q12.38-2.74,24.92-4.45l.57,4.07q-12.37,1.68-24.57,4.39Zm33.36-5.47q12.44-1.32,24.94-1.6l.09,4.1q-12.31.28-24.58,1.59Zm33.09-1.68q12.42.06,24.79,1.14l-.37,4.1q-12.2-1.08-24.44-1.12Zm33.2,2q12.66,1.47,25.16,4l-.84,4q-12.31-2.5-24.81-3.95ZM387.67,29Q400,31.8,411.93,35.67l-1.3,3.9Q398.81,35.76,386.72,33ZM420,38.39q11.88,4.22,23.37,9.4l-1.74,3.74q-11.33-5.13-23-9.27ZM450.9,51.33q11.36,5.54,22.21,12L471,66.83Q460.26,60.47,449.05,55Zm29.43,16.42q10.59,6.72,20.58,14.3l-2.55,3.26q-9.84-7.47-20.29-14.1Zm27.16,19.46q9.81,7.89,18.91,16.56l-2.9,3q-9-8.57-18.65-16.34Zm24.89,22.44q8.83,8.91,16.88,18.54L546,130.81q-7.93-9.51-16.65-18.3Zm22.14,25q7.72,9.78,14.6,20.19l-3.49,2.24q-6.78-10.26-14.4-19.91Zm19.14,27.27q6.62,10.67,12.31,21.85l-3.73,1.84q-5.61-11-12.14-21.55Zm16,29.28q5.32,11.24,9.69,22.87l-3.92,1.42Q591.11,204,585.85,193ZM602.16,222q4.05,11.8,7.08,23.91l-4,1q-3-11.94-7-23.59Zm9,31.89q2.71,12.21,4.37,24.6l-4.13.54q-1.65-12.23-4.31-24.27Zm5.36,32.92q1.29,12.24,1.55,24.55l-4.17.09q-.25-12.15-1.53-24.22Zm1.61,30.79q0,12.21-1,24.38l-4.16-.33q1-12,1-24.05Z"/><path class="cls-6" d="M113.58,197q-9.89.31-15.15,7.44T93.18,229q0,5.72,1.11,7.95a13,13,0,0,1,1.11,2.56c-5.64,0-9.86-1.15-12.63-3.47s-4.16-6.17-4.16-11.54a37.67,37.67,0,0,1,5.49-20q5.49-9.06,17.47-14.62t30.53-5.57a87.72,87.72,0,0,1,10,.77q11.28,1.08,16,1.07a47,47,0,0,0,14.12-1.84c-.31.93-.89,3-1.73,6.11A18,18,0,0,1,166,198.5a16.19,16.19,0,0,1-8.7,4.4,99.06,99.06,0,0,1-22-3l-6.58,30.77h22.91l-2.51,11.47H126.29l-12.71,58.13H91Z"/><path class="cls-6" d="M164.71,301.25q-7.53,0-12.14-4.64t-4.63-13.92a53.48,53.48,0,0,1,1.25-10.06L166,195.17l23.24-3.1-18,83.5a18.82,18.82,0,0,0-.63,5c0,2.06.5,3.53,1.49,4.4s2.63,1.3,4.92,1.3a12.08,12.08,0,0,0,8.5-3.78,21.38,21.38,0,0,0,5.62-9.82h6.6q-5.82,16.71-14.9,22.67T164.71,301.25Z"/><path class="cls-6" d="M214,300.93q-11.61,0-18.37-5.87t-6.73-18.56q0-10.5,4.38-23.33A55.21,55.21,0,0,1,207.37,231q9.74-9.36,24.47-9.36,20.07,0,20.07,24.75v.16a6,6,0,0,0,1.73.16,32.59,32.59,0,0,0,11.9-2.69,60.61,60.61,0,0,0,12.25-6.59l1.41,4.16a37.48,37.48,0,0,1-11.85,8.13,60.9,60.9,0,0,1-15.9,4.72A69.4,69.4,0,0,1,245,279a41.83,41.83,0,0,1-13.34,16.24A30.15,30.15,0,0,1,214,300.93ZM220.24,287c2.5,0,5-1.42,7.52-4.24a38.26,38.26,0,0,0,6.57-11.6,74.09,74.09,0,0,0,4.09-16.32c-2.82-.62-4.22-2.78-4.22-6.48q0-6.35,4.84-8.38-.31-5.09-1.57-7c-.83-1.29-2.29-1.95-4.38-1.95q-5.18,0-10,7.44a65,65,0,0,0-7.84,17.79,66.85,66.85,0,0,0-3,18.24c0,4.95.56,8.27,1.7,10S217.19,287,220.24,287Z"/><path class="cls-6" d="M270.56,223h22.59l-2,9.57a62,62,0,0,1,9.63-7.09A18.4,18.4,0,0,1,310.1,223a9.82,9.82,0,0,1,7.9,3.41,12.07,12.07,0,0,1,2.92,8.16,11.61,11.61,0,0,1-3,7.92,10.47,10.47,0,0,1-8.3,3.39q-3.45,0-4.63-1.63a12.16,12.16,0,0,1-1.78-4.72,13.8,13.8,0,0,0-1-2.93,1.74,1.74,0,0,0-1.7-.94A10.79,10.79,0,0,0,295,237a37.29,37.29,0,0,0-5.87,4.53l-12.55,58.77H254Z"/><path class="cls-6" d="M341.29,301.25q-11.6,0-18-5.95t-6.41-18.64a75.52,75.52,0,0,1,4.22-23.49A54.5,54.5,0,0,1,334.86,231q9.57-9.36,24.31-9.36,17.25,0,17.26,14.86a27.45,27.45,0,0,1-5,15.94,36.8,36.8,0,0,1-13.34,11.66,43.84,43.84,0,0,1-17.71,5c-.2,3.09-.3,5.16-.3,6.18,0,5.06.88,8.48,2.65,10.3s4.66,2.69,8.63,2.69a26.31,26.31,0,0,0,14.52-3.87,69.56,69.56,0,0,0,13.25-11.76h5.33Q367,301.25,341.29,301.25Zm.33-39.6a20.77,20.77,0,0,0,11-4,28.74,28.74,0,0,0,8.5-9.44,24.37,24.37,0,0,0,3.21-12.08c0-4.22-1.31-6.32-3.92-6.32q-5.65,0-11.06,9.73A73.38,73.38,0,0,0,341.62,261.65Z"/><path class="cls-6" d="M389.75,223h22.59l-2,9.57a62,62,0,0,1,9.63-7.09,18.4,18.4,0,0,1,9.35-2.48,9.82,9.82,0,0,1,7.9,3.41,12.07,12.07,0,0,1,2.92,8.16,11.61,11.61,0,0,1-3,7.92,10.47,10.47,0,0,1-8.3,3.39q-3.45,0-4.63-1.63a12.16,12.16,0,0,1-1.78-4.72,13.8,13.8,0,0,0-1-2.93,1.74,1.74,0,0,0-1.7-.94,10.79,10.79,0,0,0-5.57,1.34,37.29,37.29,0,0,0-5.87,4.53l-12.55,58.77H373.15Z"/><path class="cls-6" d="M469.73,184.34h16.48l-19,29.23H455.48ZM453.59,301.25q-7.53,0-12.14-4.64t-4.63-13.92a54.18,54.18,0,0,1,1.24-10.06L448.72,223H471.3L460,275.57a18.82,18.82,0,0,0-.63,5c0,2.06.5,3.53,1.49,4.4s2.63,1.3,4.92,1.3a12.08,12.08,0,0,0,8.5-3.78,21.47,21.47,0,0,0,5.62-9.82h6.6q-5.82,16.71-14.9,22.67T453.59,301.25Z"/><path class="cls-6" d="M498.76,301.25a20.06,20.06,0,0,1-14.9-6q-5.94-6-5.95-18.88a69.75,69.75,0,0,1,4.62-24A55.18,55.18,0,0,1,496.33,231a30.59,30.59,0,0,1,21.88-8.75q6.42,0,9.57,2.16a6.65,6.65,0,0,1,3.14,5.71v1.09l1.7-8.18h22.61l-11.3,52.56a18.82,18.82,0,0,0-.63,5q0,6.63,6.44,6.64c2.92,0,5.45-1.34,7.6-4a30.12,30.12,0,0,0,5.09-10.54H569q-5.82,16.71-14.36,22.67t-17.17,5.95q-6.57,0-10.57-3.63T522.13,287A43.28,43.28,0,0,1,512,297.3,22.35,22.35,0,0,1,498.76,301.25Zm10.2-15c2.61,0,5.2-1.2,7.76-3.62a19,19,0,0,0,5.25-10l7.51-35a6.19,6.19,0,0,0-1.56-3.92,5.83,5.83,0,0,0-4.84-1.94q-6.29,0-11.31,7.2a56.63,56.63,0,0,0-7.84,17.3,67.82,67.82,0,0,0-2.82,17.87q0,7.74,2.28,9.89A7.75,7.75,0,0,0,509,286.23Z"/><path class="cls-7" d="M108.26,438.67q-17.72,0-26-8.8t-8.31-29.26a122.57,122.57,0,0,1,5.58-34.93A80.33,80.33,0,0,1,97.36,333.6q12.3-13.38,31.29-13.39,11.78,0,19,5.1t7.22,15.62q0,6.65-2.67,10.43t-8.28,3.79a11,11,0,0,1-8.95-4q2.81-1.41,5-5.58a18.24,18.24,0,0,0,2.22-8.66,10,10,0,0,0-2.27-6.8q-2.28-2.64-7.3-2.64-8.31,0-15.85,11.22t-12.15,28.22A124.88,124.88,0,0,0,100,399.68q0,11.76,4.06,17.95t14.76,6.18a37.08,37.08,0,0,0,17.1-4,39.23,39.23,0,0,0,13.46-11.46l3.63,1.54a41,41,0,0,1-11.6,16.27,52.59,52.59,0,0,1-33.11,12.51Z"/><path class="cls-7" d="M167.7,437.12a20.06,20.06,0,0,1-14.9-6q-5.94-6-6-18.88a69.69,69.69,0,0,1,4.62-24,55.22,55.22,0,0,1,13.8-21.34,30.62,30.62,0,0,1,21.88-8.74q6.42,0,9.57,2.16a6.63,6.63,0,0,1,3.14,5.7v1.1l1.7-8.19h22.61l-11.3,52.56a18.88,18.88,0,0,0-.63,5q0,6.64,6.44,6.64a9.53,9.53,0,0,0,7.6-4,30.06,30.06,0,0,0,5.09-10.53H238q-5.82,16.69-14.36,22.66t-17.17,5.95q-6.57,0-10.58-3.63t-4.78-10.61A43.28,43.28,0,0,1,181,433.17,22.28,22.28,0,0,1,167.7,437.12Zm10.2-15q3.91,0,7.76-3.63a19,19,0,0,0,5.25-10l7.51-35a6.17,6.17,0,0,0-1.56-3.92,5.82,5.82,0,0,0-4.85-1.95q-6.27,0-11.3,7.2a56.69,56.69,0,0,0-7.84,17.31,67.75,67.75,0,0,0-2.82,17.86q0,7.74,2.28,9.9A7.75,7.75,0,0,0,177.9,422.11Z"/><path class="cls-7" d="M326.72,437.12q-9.57,0-14-5a18.09,18.09,0,0,1-4.47-12.46,40.68,40.68,0,0,1,.76-7.36q.78-4.1,1.65-8c.58-2.57,1-4.22,1.19-4.93q1.24-5.42,2.33-10.67a43.82,43.82,0,0,0,1.11-8.51q0-7.89-5.63-7.89-4.08,0-7.22,3.95a30.13,30.13,0,0,0-5,10.29l-10.66,49.63H264.14l11.44-53.36a14.87,14.87,0,0,0,.49-3.87q0-6.79-4.71-6.8a9.58,9.58,0,0,0-7.62,3.95,29.63,29.63,0,0,0-5.09,10.45L248,436.19H225.41L242,358.88H264.6l-1.7,8q8-8.81,19.12-8.8,13.78,0,16.14,13.28,8.63-13.14,21.8-13.15,8,0,12.71,4.35t4.71,13.14a50.78,50.78,0,0,1-1.11,10q-1.08,5.46-3.11,13.36-1.28,4.8-2.3,9.36a35.51,35.51,0,0,0-1,7.2,7.34,7.34,0,0,0,1.41,4.8q1.39,1.68,4.87,1.68a9.36,9.36,0,0,0,7.51-3.31,39.5,39.5,0,0,0,5.66-10.29h6.57q-5.79,17-13.42,22.82T326.72,437.12Z"/><path class="cls-7" d="M371.71,437.12q-11.61,0-18-5.95t-6.41-18.64A75.86,75.86,0,0,1,351.48,389a54.46,54.46,0,0,1,13.79-22.21q9.57-9.36,24.31-9.36,17.26,0,17.26,14.85a27.51,27.51,0,0,1-5,15.95,36.65,36.65,0,0,1-13.33,11.65,43.88,43.88,0,0,1-17.72,5c-.2,3.09-.3,5.16-.3,6.19q0,7.58,2.65,10.29c1.79,1.8,4.66,2.69,8.63,2.69a26.31,26.31,0,0,0,14.52-3.86,70.59,70.59,0,0,0,13.26-11.76h5.33Q397.42,437.13,371.71,437.12Zm.32-39.6a20.72,20.72,0,0,0,11-4,28.73,28.73,0,0,0,8.49-9.44A24.38,24.38,0,0,0,394.78,372q0-6.31-3.92-6.32-5.67,0-11.07,9.73A73.48,73.48,0,0,0,372,397.52Z"/><path class="cls-7" d="M425,437.12q-7.53,0-12.14-4.64t-4.63-13.92a54.09,54.09,0,0,1,1.24-10.05L426.27,331,449.5,328l-18,83.49a18.88,18.88,0,0,0-.63,5c0,2.07.5,3.53,1.49,4.4s2.63,1.31,4.92,1.31a12.05,12.05,0,0,0,8.5-3.79,21.52,21.52,0,0,0,5.62-9.81H458q-5.82,16.69-14.9,22.66T425,437.12Z"/><path class="cls-7" d="M477.55,350.51a12.1,12.1,0,0,1-8.79-3.55,11.68,11.68,0,0,1-3.59-8.67,12.36,12.36,0,0,1,12.38-12.37,12.13,12.13,0,0,1,8.87,3.65,11.83,11.83,0,0,1,3.68,8.72,11.58,11.58,0,0,1-3.68,8.67A12.28,12.28,0,0,1,477.55,350.51ZM466.9,437.12c-5,0-9.06-1.55-12.15-4.64s-4.62-7.73-4.62-13.92a54.09,54.09,0,0,1,1.24-10.05L462,358.88h22.58l-11.28,52.56a19.31,19.31,0,0,0-.62,5c0,2.07.5,3.53,1.49,4.4s2.63,1.31,4.92,1.31a12,12,0,0,0,8.49-3.79,21.44,21.44,0,0,0,5.63-9.81h6.6q-5.82,16.69-14.9,22.66T466.9,437.12Z"/><path class="cls-7" d="M512.07,437.12a20.06,20.06,0,0,1-14.9-6q-6-6-5.95-18.88a69.69,69.69,0,0,1,4.62-24,55.2,55.2,0,0,1,13.79-21.34,30.64,30.64,0,0,1,21.88-8.74q6.43,0,9.58,2.16a6.62,6.62,0,0,1,3.13,5.7v1.1l1.71-8.19h22.61l-11.31,52.56a18.88,18.88,0,0,0-.62,5q0,6.64,6.44,6.64a9.53,9.53,0,0,0,7.6-4,29.88,29.88,0,0,0,5.08-10.53h6.6q-5.82,16.69-14.36,22.66t-17.17,5.95q-6.59,0-10.58-3.63t-4.79-10.61a43.06,43.06,0,0,1-10.11,10.29A22.28,22.28,0,0,1,512.07,437.12Zm10.19-15q3.91,0,7.77-3.63a19,19,0,0,0,5.24-10l7.52-35a6.18,6.18,0,0,0-1.57-3.92,5.8,5.8,0,0,0-4.84-1.95q-6.27,0-11.3,7.2a56.94,56.94,0,0,0-7.85,17.31,67.7,67.7,0,0,0-2.81,17.86q0,7.74,2.27,9.9A7.79,7.79,0,0,0,522.26,422.11Z"/><g id="Capa_2-2" data-name="Capa 2"><g id="Capa_1-2-2" data-name="Capa 1-2"><path class="cls-2" d="M297.34,513.33c-.45,8.17.22,16.12.73,24.09.27,4.37.14,8.77.47,13.13.48,6.49.22,13,.35,19.48a2.72,2.72,0,0,1,0,.28c0,.71.51,1.53-.32,2s-1.26-.46-1.82-.92c-2.17-1.79-4-4-6.05-6a28.22,28.22,0,0,1-2.57-2.89,105.18,105.18,0,0,1-6.75-9.08c-1.83-2.89-3.57-5.83-5.19-8.89a54.94,54.94,0,0,1-5.31-15,55.4,55.4,0,0,1,2-26.78,57.68,57.68,0,0,1,12.6-20.32,56,56,0,0,1,10-7.88,3.18,3.18,0,0,1,3.48,0c3,1.84,6,3.71,8.86,5.8a76.05,76.05,0,0,1,9,7.74,33,33,0,0,1,2.65,3,81.75,81.75,0,0,1,5,7.19,3.83,3.83,0,0,1,.49,1.09,14.14,14.14,0,0,0,2.7,5.71,6.41,6.41,0,0,1,1.07,3.12,3.3,3.3,0,0,1-2,3.71,49.1,49.1,0,0,0-10.64,7,18,18,0,0,0-2.69,3c-1.4,2-2.86,3.9-4.1,6a46.44,46.44,0,0,0-4.22,9.2c-.1.33-.23.57-.56.53-.49,0-.62-.48-.67-1-.24-2.32-.63-4.64-.68-7-.15-9-1-17.93-1.47-26.9-.14-2.7-.57-5.37-.88-8.05-.14-1.26-.87-1.43-1.78-1.4s-1.73.43-1.75,1.79c0,2.28-.09,4.56-.1,6.85C297.33,505.82,297.34,509.66,297.34,513.33Z"/><path class="cls-2" d="M343.73,574c-4.6,0-9-1.35-13.48-2.44-5.95-1.45-11.58-4-17.22-6.56a.94.94,0,0,1-.66-1c0-.49.3-.63.66-.78q4.92-2.14,9.82-4.34A113.86,113.86,0,0,0,337,551.38c1.9-1.19,3.7-2.59,5.53-3.91,1.54-1.11,3.06-2.26,4.59-3.38a3,3,0,0,0,.92-3.24,2.2,2.2,0,0,0-2.53-1.83,97,97,0,0,0-17.42,4.73,145.75,145.75,0,0,0-18.9,9,10.62,10.62,0,0,1-1.28.6,1.66,1.66,0,0,1-2.22-.93,1.82,1.82,0,0,1,0-1.34c1.22-3.71,1.7-7.73,3.39-11.24a5,5,0,0,0,.25-.77,37.75,37.75,0,0,1,4.21-9.28A30.47,30.47,0,0,1,323.66,519a35.73,35.73,0,0,1,7.85-3.13c7-2.27,13.5-.16,19.95,2.71a57.06,57.06,0,0,1,10.16,6.36q2.79,2,5.69,3.84a5.49,5.49,0,0,1,2.5,4c.58,3.37-.29,6.59-1,9.74-1,4.48-2.22,8.92-3.62,13.26a32.64,32.64,0,0,1-7.5,12.9A17.85,17.85,0,0,1,345.13,574C344.66,574,344.2,574,343.73,574Z"/></g></g></svg>